<svg width="800" height="800" viewBox="0 0 24 24" fill="none" xmlns="http://www.w3.org/2000/svg"><path d="M12.926 20.631C15.032 19.678 20 16.733 20 10.165V6.197c0-1.118 0-1.678-.218-2.105a2.001 2.001 0 00-.875-.874C18.48 3 17.92 3 16.8 3H7.2c-1.12 0-1.68 0-2.108.218a1.999 1.999 0 00-.874.874C4 4.52 4 5.08 4 6.2v3.965c0 6.568 4.968 9.513 7.074 10.466.223.102.335.152.588.195.16.028.518.028.677 0 .252-.043.363-.093.585-.194h.002z" stroke="#000" stroke-width="2" stroke-linecap="round" stroke-linejoin="round"/></svg>