<!--Created with Inkscape (http://www.inkscape.org/)--><svg xmlns="http://www.w3.org/2000/svg" xml:space="preserve" width="128" height="128" viewBox="0 0 33.87 33.87"><path fill="#ff631a" d="m4.84 9.85 12.09 7.07 12.11-7.09-12.1-7.08Z"/><path fill="#ff631a" d="m16.94 31.11 12.12-7.1-.02-14.18-12.11 7.1Z"/><path fill="#dd1616" d="m4.81 24.03.03-14.18 12.09 7.07v14.2Z"/><path fill="#ffa64a" d="M13.17 4.96 8.6 7.63l12.1 7.08.04 4.43 4.52-2.65v-4.45z"/><path fill="#d63416" d="m27.54 17.83-1.5.88v1.77l1.5-.88zm1.52 4.42-12.13 7.1v1.76l12.13-7.08z"/><path fill="#9b000a" d="M5.57 17.38v1.78l2.26 1.32v-1.77Zm0 2.67v1.77l2.26 1.32v-1.78zM4.8 22.3l.03 1.74 12.09 7.07v-2.65l-2.26-1.32-.01.88zm9.86 4.84v-1.78l-2.28-1.32v1.76z"/><path fill="none" stroke="#fa9a4f" stroke-linecap="round" stroke-linejoin="round" stroke-width="1.59" d="m16.93 2.75-12.1 7.1-.02 14.18 12.13 7.08 12.12-7.1-.02-14.18-12.1-7.08z"/><path fill="none" stroke="#f7bf73" stroke-linecap="round" stroke-linejoin="round" stroke-width=".79" d="m29.04 9.83-12.11 7.1"/><path fill="#fffeae" d="m20.32 14.48.39.23v.46l4.56-2.67v-.46l-.4-.23z" color="#000" style="-inkscape-stroke:none"/><path fill="none" stroke="#fffeae" stroke-linecap="round" stroke-linejoin="round" stroke-width=".79" d="m4.84 9.85 12.09 7.07v14.19"/><path d="M16.93.64a2.12 2.12 0 0 0-1.07.29l-12.1 7.1a2.12 2.12 0 0 0-1.04 1.82L2.7 24.02a2.12 2.12 0 0 0 1.04 1.83l12.13 7.1a2.12 2.12 0 0 0 2.14-.01l12.12-7.1a2.12 2.12 0 0 0 1.05-1.82l-.02-14.19a2.12 2.12 0 0 0-1.05-1.82L18.01.93a2.12 2.12 0 0 0-1.08-.3Zm0 2.11 12.11 7.08.02 14.19-12.12 7.1-12.13-7.1.03-14.17Z" color="#000" style="-inkscape-stroke:none"/></svg>
