<?xml version="1.0" encoding="UTF-8" standalone="no"?>
<svg
   xml:space="preserve"
   width="128"
   height="128"
   viewBox="0 0 33.87 33.87"
   version="1.1"
   id="svg11"
   sodipodi:docname="dph_stop.svg"
   inkscape:version="1.3 (0e150ed6c4, 2023-07-21)"
   xmlns:inkscape="http://www.inkscape.org/namespaces/inkscape"
   xmlns:sodipodi="http://sodipodi.sourceforge.net/DTD/sodipodi-0.dtd"
   xmlns="http://www.w3.org/2000/svg"
   xmlns:svg="http://www.w3.org/2000/svg"><defs
     id="defs11" /><sodipodi:namedview
     id="namedview11"
     pagecolor="#ffffff"
     bordercolor="#666666"
     borderopacity="1.0"
     inkscape:showpageshadow="2"
     inkscape:pageopacity="0.0"
     inkscape:pagecheckerboard="0"
     inkscape:deskcolor="#d1d1d1"
     showgrid="false"
     inkscape:zoom="8.8359375"
     inkscape:cx="64"
     inkscape:cy="73.053935"
     inkscape:window-width="2560"
     inkscape:window-height="1369"
     inkscape:window-x="-8"
     inkscape:window-y="-8"
     inkscape:window-maximized="1"
     inkscape:current-layer="svg11" /><path
     fill="#ff631a"
     d="m4.84 9.85 12.09 7.07 12.11-7.09-12.1-7.08Z"
     id="path1" /><path
     fill="#ff631a"
     d="m16.94 31.11 12.12-7.1-.02-14.18-12.11 7.1Z"
     id="path2" /><path
     fill="#dd1616"
     d="m4.81 24.03.03-14.18 12.09 7.07v14.2Z"
     id="path3" /><path
     fill="#ffa64a"
     d="M13.17 4.96 8.6 7.63l12.1 7.08.04 4.43 4.52-2.65v-4.45z"
     id="path4" /><path
     fill="#d63416"
     d="m27.54 17.83-1.5.88v1.77l1.5-.88zm1.52 4.42-12.13 7.1v1.76l12.13-7.08z"
     id="path5" /><path
     fill="#9b000a"
     d="M5.57 17.38v1.78l2.26 1.32v-1.77Zm0 2.67v1.77l2.26 1.32v-1.78zM4.8 22.3l.03 1.74 12.09 7.07v-2.65l-2.26-1.32-.01.88zm9.86 4.84v-1.78l-2.28-1.32v1.76z"
     id="path6" /><path
     fill="none"
     stroke="#fa9a4f"
     stroke-linecap="round"
     stroke-linejoin="round"
     stroke-width="1.59"
     d="m16.93 2.75-12.1 7.1-.02 14.18 12.13 7.08 12.12-7.1-.02-14.18-12.1-7.08z"
     id="path7" /><path
     fill="none"
     stroke="#f7bf73"
     stroke-linecap="round"
     stroke-linejoin="round"
     stroke-width=".79"
     d="m29.04 9.83-12.11 7.1"
     id="path8" /><path
     fill="#fffeae"
     d="m20.32 14.48.39.23v.46l4.56-2.67v-.46l-.4-.23z"
     color="#000"
     style="-inkscape-stroke:none"
     id="path9" /><path
     fill="none"
     stroke="#fffeae"
     stroke-linecap="round"
     stroke-linejoin="round"
     stroke-width=".79"
     d="m4.84 9.85 12.09 7.07v14.19"
     id="path10" /><path
     d="M16.93.64a2.12 2.12 0 0 0-1.07.29l-12.1 7.1a2.12 2.12 0 0 0-1.04 1.82L2.7 24.02a2.12 2.12 0 0 0 1.04 1.83l12.13 7.1a2.12 2.12 0 0 0 2.14-.01l12.12-7.1a2.12 2.12 0 0 0 1.05-1.82l-.02-14.19a2.12 2.12 0 0 0-1.05-1.82L18.01.93a2.12 2.12 0 0 0-1.08-.3Zm0 2.11 12.11 7.08.02 14.19-12.12 7.1-12.13-7.1.03-14.17Z"
     color="#000"
     style="-inkscape-stroke:none"
     id="path11" /><g
     id="g11"
     transform="matrix(0.39637408,0,0,0.39637408,19.175134,19.996907)"><path
       fill="#dd2e44"
       d="M 12,3 3,11.985 V 24 l 9,9 h 12 l 9,-9 V 11.985 L 24,3 Z"
       id="path1-4" /><path
       fill="#ccd6dd"
       d="M 24.827,1 H 11.173 L 1,11.156 V 24.828 L 11.172,35 H 24.829 L 35,24.828 V 11.156 Z M 33,24 24,33 H 12 L 3,24 V 11.985 L 12,3 h 12 l 9,8.985 z"
       id="path2-1" /></g></svg>
